<mxfile host="app.diagrams.net" modified="2023-04-07T03:01:58.377Z" agent="Mozilla/5.0 (Macintosh; Intel Mac OS X 10_15_7) AppleWebKit/537.36 (KHTML, like Gecko) Chrome/111.0.0.0 Safari/537.36" etag="Knsl9rH1yLaId-CTAwAY" version="21.1.5" type="device">
  <diagram name="Page-1" id="IbOhgusH-Jr8fS4Cp4JA">
    <mxGraphModel dx="1194" dy="766" grid="1" gridSize="10" guides="1" tooltips="1" connect="1" arrows="1" fold="1" page="1" pageScale="1" pageWidth="850" pageHeight="1100" math="0" shadow="0">
      <root>
        <mxCell id="0" />
        <mxCell id="1" parent="0" />
        <mxCell id="8Ohnk4t2oD1TDpRhyuEv-1" value="&lt;b&gt;INI&lt;/b&gt;" style="ellipse;whiteSpace=wrap;html=1;strokeColor=default;sketch=1;curveFitting=1;jiggle=2;" vertex="1" parent="1">
          <mxGeometry x="80" y="250" width="140" height="90" as="geometry" />
        </mxCell>
        <mxCell id="8Ohnk4t2oD1TDpRhyuEv-2" value="&lt;b&gt;Up&lt;/b&gt;" style="ellipse;whiteSpace=wrap;html=1;strokeColor=default;sketch=1;curveFitting=1;jiggle=2;" vertex="1" parent="1">
          <mxGeometry x="340" y="170" width="140" height="90" as="geometry" />
        </mxCell>
        <mxCell id="8Ohnk4t2oD1TDpRhyuEv-3" value="&lt;b&gt;Down&lt;/b&gt;" style="ellipse;whiteSpace=wrap;html=1;strokeColor=default;sketch=1;curveFitting=1;jiggle=2;" vertex="1" parent="1">
          <mxGeometry x="610" y="250" width="140" height="90" as="geometry" />
        </mxCell>
        <mxCell id="8Ohnk4t2oD1TDpRhyuEv-4" value="&lt;b&gt;Done&lt;/b&gt;" style="ellipse;whiteSpace=wrap;html=1;strokeColor=default;sketch=1;curveFitting=1;jiggle=2;" vertex="1" parent="1">
          <mxGeometry x="330" y="390" width="140" height="90" as="geometry" />
        </mxCell>
        <mxCell id="8Ohnk4t2oD1TDpRhyuEv-6" value="" style="endArrow=classic;html=1;exitX=0.829;exitY=0.078;exitDx=0;exitDy=0;exitPerimeter=0;entryX=0;entryY=0;entryDx=0;entryDy=0;curved=1;" edge="1" parent="1" source="8Ohnk4t2oD1TDpRhyuEv-1" target="8Ohnk4t2oD1TDpRhyuEv-2">
          <mxGeometry width="50" height="50" relative="1" as="geometry">
            <mxPoint x="200" y="250" as="sourcePoint" />
            <mxPoint x="250" y="200" as="targetPoint" />
            <Array as="points">
              <mxPoint x="240" y="170" />
            </Array>
          </mxGeometry>
        </mxCell>
        <mxCell id="8Ohnk4t2oD1TDpRhyuEv-20" value="&lt;font style=&quot;font-size: 16px;&quot;&gt;Start&lt;/font&gt;" style="edgeLabel;html=1;align=center;verticalAlign=middle;resizable=0;points=[];labelBorderColor=default;" vertex="1" connectable="0" parent="8Ohnk4t2oD1TDpRhyuEv-6">
          <mxGeometry x="0.0819" y="-25" relative="1" as="geometry">
            <mxPoint as="offset" />
          </mxGeometry>
        </mxCell>
        <mxCell id="8Ohnk4t2oD1TDpRhyuEv-8" value="" style="endArrow=classic;html=1;exitX=0;exitY=0;exitDx=0;exitDy=0;curved=1;" edge="1" parent="1" source="8Ohnk4t2oD1TDpRhyuEv-1">
          <mxGeometry width="50" height="50" relative="1" as="geometry">
            <mxPoint x="90" y="230" as="sourcePoint" />
            <mxPoint x="150" y="240" as="targetPoint" />
            <Array as="points">
              <mxPoint x="60" y="130" />
            </Array>
          </mxGeometry>
        </mxCell>
        <mxCell id="8Ohnk4t2oD1TDpRhyuEv-21" value="&lt;font style=&quot;font-size: 16px;&quot;&gt;!Start&lt;/font&gt;" style="edgeLabel;html=1;align=center;verticalAlign=middle;resizable=0;points=[];labelBorderColor=default;" vertex="1" connectable="0" parent="8Ohnk4t2oD1TDpRhyuEv-8">
          <mxGeometry x="-0.4758" y="-12" relative="1" as="geometry">
            <mxPoint x="1" as="offset" />
          </mxGeometry>
        </mxCell>
        <mxCell id="8Ohnk4t2oD1TDpRhyuEv-9" value="" style="endArrow=classic;html=1;exitX=1;exitY=0;exitDx=0;exitDy=0;curved=1;" edge="1" parent="1" source="8Ohnk4t2oD1TDpRhyuEv-2" target="8Ohnk4t2oD1TDpRhyuEv-3">
          <mxGeometry width="50" height="50" relative="1" as="geometry">
            <mxPoint x="510" y="350" as="sourcePoint" />
            <mxPoint x="560" y="300" as="targetPoint" />
            <Array as="points">
              <mxPoint x="580" y="150" />
            </Array>
          </mxGeometry>
        </mxCell>
        <mxCell id="8Ohnk4t2oD1TDpRhyuEv-23" value="&lt;font style=&quot;font-size: 16px;&quot;&gt;Doodle&#39;s(x,y) == jump distance&lt;/font&gt;" style="edgeLabel;html=1;align=center;verticalAlign=middle;resizable=0;points=[];labelBorderColor=default;" vertex="1" connectable="0" parent="8Ohnk4t2oD1TDpRhyuEv-9">
          <mxGeometry x="-0.2789" y="-20" relative="1" as="geometry">
            <mxPoint x="-13" y="-18" as="offset" />
          </mxGeometry>
        </mxCell>
        <mxCell id="8Ohnk4t2oD1TDpRhyuEv-10" value="" style="endArrow=classic;html=1;exitX=0;exitY=0;exitDx=0;exitDy=0;curved=1;entryX=0.5;entryY=0;entryDx=0;entryDy=0;" edge="1" parent="1" source="8Ohnk4t2oD1TDpRhyuEv-2" target="8Ohnk4t2oD1TDpRhyuEv-2">
          <mxGeometry width="50" height="50" relative="1" as="geometry">
            <mxPoint x="370" y="170" as="sourcePoint" />
            <mxPoint x="420" y="120" as="targetPoint" />
            <Array as="points">
              <mxPoint x="320" y="20" />
            </Array>
          </mxGeometry>
        </mxCell>
        <mxCell id="8Ohnk4t2oD1TDpRhyuEv-22" value="&lt;font style=&quot;font-size: 16px;&quot;&gt;Doodle&#39;s(x,y) &amp;lt; jump distance&lt;/font&gt;" style="edgeLabel;html=1;align=center;verticalAlign=middle;resizable=0;points=[];labelBorderColor=default;" vertex="1" connectable="0" parent="8Ohnk4t2oD1TDpRhyuEv-10">
          <mxGeometry x="0.4441" y="-9" relative="1" as="geometry">
            <mxPoint as="offset" />
          </mxGeometry>
        </mxCell>
        <mxCell id="8Ohnk4t2oD1TDpRhyuEv-11" value="" style="endArrow=classic;html=1;exitX=0.5;exitY=0;exitDx=0;exitDy=0;entryX=1;entryY=0;entryDx=0;entryDy=0;curved=1;" edge="1" parent="1" source="8Ohnk4t2oD1TDpRhyuEv-3" target="8Ohnk4t2oD1TDpRhyuEv-3">
          <mxGeometry width="50" height="50" relative="1" as="geometry">
            <mxPoint x="400" y="420" as="sourcePoint" />
            <mxPoint x="780" y="270" as="targetPoint" />
            <Array as="points">
              <mxPoint x="780" y="160" />
            </Array>
          </mxGeometry>
        </mxCell>
        <mxCell id="8Ohnk4t2oD1TDpRhyuEv-12" value="" style="endArrow=classic;html=1;exitX=0.5;exitY=1;exitDx=0;exitDy=0;entryX=1;entryY=0.5;entryDx=0;entryDy=0;curved=1;" edge="1" parent="1" source="8Ohnk4t2oD1TDpRhyuEv-3" target="8Ohnk4t2oD1TDpRhyuEv-4">
          <mxGeometry width="50" height="50" relative="1" as="geometry">
            <mxPoint x="610" y="440" as="sourcePoint" />
            <mxPoint x="660" y="390" as="targetPoint" />
            <Array as="points">
              <mxPoint x="610" y="440" />
            </Array>
          </mxGeometry>
        </mxCell>
        <mxCell id="8Ohnk4t2oD1TDpRhyuEv-24" value="&lt;font style=&quot;font-size: 16px;&quot;&gt;Doodle&#39;s(x,y) &amp;gt; vsync(max)&lt;/font&gt;" style="edgeLabel;html=1;align=center;verticalAlign=middle;resizable=0;points=[];labelBorderColor=default;" vertex="1" connectable="0" parent="8Ohnk4t2oD1TDpRhyuEv-12">
          <mxGeometry x="-0.2475" y="-19" relative="1" as="geometry">
            <mxPoint x="52" y="10" as="offset" />
          </mxGeometry>
        </mxCell>
        <mxCell id="8Ohnk4t2oD1TDpRhyuEv-13" value="" style="endArrow=classic;html=1;exitX=0;exitY=0.5;exitDx=0;exitDy=0;entryX=0.45;entryY=1.056;entryDx=0;entryDy=0;entryPerimeter=0;curved=1;" edge="1" parent="1" source="8Ohnk4t2oD1TDpRhyuEv-4" target="8Ohnk4t2oD1TDpRhyuEv-1">
          <mxGeometry width="50" height="50" relative="1" as="geometry">
            <mxPoint x="330" y="410" as="sourcePoint" />
            <mxPoint x="380" y="360" as="targetPoint" />
            <Array as="points">
              <mxPoint x="190" y="430" />
            </Array>
          </mxGeometry>
        </mxCell>
        <mxCell id="8Ohnk4t2oD1TDpRhyuEv-16" value="Ack" style="edgeLabel;html=1;align=center;verticalAlign=middle;resizable=0;points=[];fontSize=16;labelBorderColor=default;" vertex="1" connectable="0" parent="8Ohnk4t2oD1TDpRhyuEv-13">
          <mxGeometry x="-0.0408" y="-19" relative="1" as="geometry">
            <mxPoint as="offset" />
          </mxGeometry>
        </mxCell>
        <mxCell id="8Ohnk4t2oD1TDpRhyuEv-14" value="" style="endArrow=classic;html=1;exitX=1;exitY=1;exitDx=0;exitDy=0;curved=1;entryX=0.5;entryY=1;entryDx=0;entryDy=0;" edge="1" parent="1" source="8Ohnk4t2oD1TDpRhyuEv-4" target="8Ohnk4t2oD1TDpRhyuEv-4">
          <mxGeometry width="50" height="50" relative="1" as="geometry">
            <mxPoint x="380" y="540" as="sourcePoint" />
            <mxPoint x="370" y="530" as="targetPoint" />
            <Array as="points">
              <mxPoint x="470" y="590" />
            </Array>
          </mxGeometry>
        </mxCell>
        <mxCell id="8Ohnk4t2oD1TDpRhyuEv-19" value="!Ack" style="edgeLabel;html=1;align=center;verticalAlign=middle;resizable=0;points=[];fontSize=16;labelBorderColor=default;" vertex="1" connectable="0" parent="8Ohnk4t2oD1TDpRhyuEv-14">
          <mxGeometry x="-0.5484" y="-8" relative="1" as="geometry">
            <mxPoint y="5" as="offset" />
          </mxGeometry>
        </mxCell>
        <mxCell id="8Ohnk4t2oD1TDpRhyuEv-15" value="" style="endArrow=classic;html=1;exitX=0;exitY=0.5;exitDx=0;exitDy=0;entryX=0.607;entryY=0.989;entryDx=0;entryDy=0;entryPerimeter=0;curved=1;" edge="1" parent="1" source="8Ohnk4t2oD1TDpRhyuEv-3" target="8Ohnk4t2oD1TDpRhyuEv-2">
          <mxGeometry width="50" height="50" relative="1" as="geometry">
            <mxPoint x="430" y="330" as="sourcePoint" />
            <mxPoint x="480" y="280" as="targetPoint" />
            <Array as="points">
              <mxPoint x="480" y="340" />
            </Array>
          </mxGeometry>
        </mxCell>
        <mxCell id="8Ohnk4t2oD1TDpRhyuEv-25" value="&lt;font style=&quot;font-size: 16px;&quot;&gt;Doodle&#39;s(x,y) == any platform&lt;/font&gt;" style="edgeLabel;html=1;align=center;verticalAlign=middle;resizable=0;points=[];labelBorderColor=default;" vertex="1" connectable="0" parent="1">
          <mxGeometry x="450.0018214181688" y="309.99817558848196" as="geometry" />
        </mxCell>
        <mxCell id="8Ohnk4t2oD1TDpRhyuEv-28" value="&lt;span style=&quot;color: rgb(0, 0, 0); font-family: Helvetica; font-size: 16px; font-style: normal; font-variant-ligatures: normal; font-variant-caps: normal; font-weight: 400; letter-spacing: normal; orphans: 2; text-align: center; text-indent: 0px; text-transform: none; widows: 2; word-spacing: 0px; -webkit-text-stroke-width: 0px; background-color: rgb(255, 255, 255); text-decoration-thickness: initial; text-decoration-style: initial; text-decoration-color: initial; float: none; display: inline !important;&quot;&gt;Doodle&#39;s(x,y) &amp;lt; vsync(max) &amp;amp;&amp;amp; Doodle&#39;s(x,y) != any platform&lt;/span&gt;" style="text;whiteSpace=wrap;html=1;labelBorderColor=default;" vertex="1" parent="1">
          <mxGeometry x="620" y="170" width="230" height="40" as="geometry" />
        </mxCell>
      </root>
    </mxGraphModel>
  </diagram>
</mxfile>
